<svg width="56" height="57" viewBox="0 0 56 57" fill="none" xmlns="http://www.w3.org/2000/svg">
<rect width="56" height="56.6512" rx="2.60465" fill="#0744BD"/>
<path fill-rule="evenodd" clip-rule="evenodd" d="M27.4999 37.5241C27.4999 36.5357 27.6516 35.6435 27.7995 35.0493L30.234 23.9203H36.2026L37.2511 19.0725H31.2806L32.9263 11.5029L25.7632 13.8306L24.6161 19.0725H19.7984L18.7461 23.9203H23.5752L21.6868 32.5292C21.2393 34.5551 20.8355 36.4847 20.8355 38.4634C20.8355 43.3659 24.0189 45.1484 28.5446 45.1484C29.6917 45.1484 30.981 44.7975 32.13 44.5504L33.2733 39.4028C32.422 39.7518 31.237 39.997 30.0368 39.997C28.5446 39.997 27.4999 39.0576 27.4999 37.5241Z" fill="white"/>
</svg>
